<?xml version="1.0" encoding="iso-8859-1"?>
<!-- Generator: Adobe Illustrator 19.0.0, SVG Export Plug-In . SVG Version: 6.00 Build 0)  -->
<svg version="1.1" id="Layer_1" xmlns="http://www.w3.org/2000/svg" xmlns:xlink="http://www.w3.org/1999/xlink" x="0px" y="0px"
	 viewBox="0 0 512.002 512.002" style="enable-background:new 0 0 512.002 512.002;" xml:space="preserve">
<g>
	<path style="fill:#512807;" d="M424.419,361.86l-0.003-0.014c-0.352-1.405-1.057-2.696-2.048-3.75
		c-11.286-12.005-20.872-23.772-28.489-34.977c-0.714-1.05-1.655-1.927-2.753-2.565c-10.346-6.009-20.518-4.723-34.597-2.942
		c-3.637,0.46-7.759,0.981-12.263,1.422c-1.032,0.102-2.039,0.392-2.966,0.856c-4.042,2.021-5.788,6.858-3.969,10.996
		c0.711,1.615,16.29,36.988,24.604,51.902l-25.076,102.236c-0.621,2.529-0.044,5.202,1.563,7.251
		c1.607,2.049,4.067,3.245,6.67,3.245h33.233c3.935,0,7.353-2.708,8.254-6.539l22.472-95.681l14.49-25.153
		C424.636,366.245,424.951,363.991,424.419,361.86z"/>
	<path style="fill:#512807;" d="M269.366,320.032c-0.773-3.096-3.221-5.496-6.332-6.208c-18.93-4.335-26.719-9.264-27.022-9.46
		c-2.284-1.551-5.181-1.893-7.768-0.914c-2.612,0.99-4.569,3.203-5.231,5.918l-17.119,70.169c-0.16,0.658-0.242,1.332-0.242,2.009
		v105.497c0,4.682,3.796,8.477,8.477,8.477h27.646c4.682,0,8.477-3.796,8.477-8.477V382.056l18.935-57.304
		C269.694,323.229,269.754,321.589,269.366,320.032z"/>
</g>
<path style="fill:#B99C80;" d="M485.081,214.948c-14.055-10.968-28.56-14.452-29.17-14.595c-3.639-0.853-7.406,0.779-9.274,4.015
	c-1.868,3.236-1.397,7.314,1.16,10.04c10.303,10.979,16.675,24.63,18.939,40.573c0.107,0.749,0.313,1.482,0.614,2.176
	c10.294,23.779,24.452,27.605,32.501,27.605c3.57,0,5.94-0.754,6.238-0.853c3.282-1.103,5.566-4.093,5.764-7.551
	C513.69,244.303,498.308,225.271,485.081,214.948z"/>
<path style="fill:#512807;" d="M161.191,31.406c-0.328-4.671-4.386-8.196-9.049-7.863c-4.671,0.327-8.19,4.38-7.864,9.049
	c0.198,2.824,0.787,11.205-13.799,18.315c4.75-12.278,3.74-23.095,3.667-23.804c-0.478-4.637-4.606-7.985-9.248-7.539
	c-4.639,0.45-8.043,4.588-7.623,9.23c0.066,0.718,1.358,16.88-10.964,28.436H91.898c-3.741-3.004-8.406-15.51-9.706-30.002
	c-0.413-4.663-4.527-8.103-9.188-7.698c-4.664,0.41-8.112,4.524-7.701,9.188c0.339,3.854,1.831,17.174,6.815,28.511H58.61
	c-4.073-5.403-8.622-19.314-10.736-30.788c-0.847-4.604-5.267-7.651-9.867-6.806c-4.605,0.844-7.653,5.262-6.809,9.867
	c0.653,3.563,3.221,16.374,8.134,27.543c-10.849-1.237-19.785-9.331-21.78-20.179c-0.674-3.66-0.775-7.285-0.304-10.775
	c0.627-4.64-2.626-8.909-7.266-9.538c-4.641-0.621-8.909,2.627-9.538,7.266c-0.712,5.268-0.567,10.69,0.431,16.115
	c3.651,19.846,21.038,34.25,41.343,34.25h12.899c0.002,0,0.005,0,0.007,0c0.003,0,0.007,0,0.01,0h34.605
	c0.016,0,0.033,0.002,0.049,0.002c0.01,0,0.019-0.002,0.029-0.002h13.936l7.939,19.617c1.335,3.298,4.509,5.299,7.86,5.299
	c1.059,0,2.136-0.2,3.178-0.622c4.339-1.757,6.434-6.699,4.677-11.039l-6.217-15.358c4.173-1.038,9.126-2.55,14.06-4.709
	C153.06,59.583,162.272,46.809,161.191,31.406z"/>
<path style="fill:#A86B38;" d="M465.68,341.722c0.261-0.448,0.488-0.858,0.68-1.208c3.712-6.727,7.988-18.367,12.708-34.597
	c4.637-15.938,8.751-40.19,2.036-65.221c-6.671-24.862-22.193-44.064-46.134-57.075c-30.361-16.499-66.095-11.299-97.619-6.71
	c-19.945,2.903-38.785,5.645-50.448,1.466c-28.198-10.101-69.185-6.927-84.405-5.259l-35.153-64.957
	c3.863-14.033,3.344-28.468,3.233-30.71c-0.115-2.333-1.188-4.515-2.966-6.03c-1.777-1.517-4.104-2.232-6.423-1.978
	c-17.111,1.87-28.383,7.291-35.808,13.537c-0.075-0.011-0.144-0.034-0.219-0.043c-49.404-6.086-64.035,24.068-67.953,36.662
	l-35.007,12.603c-2.235,0.805-4.03,2.51-4.947,4.701c-0.918,2.191-0.874,4.667,0.12,6.824l13.207,28.658
	c1.391,3.02,4.467,4.959,7.747,4.929c0.358-0.002,26.643-0.148,50.339-0.119c7.117,19.278,29.051,76.922,42.849,93.603
	c13.145,15.891,40.969,44.589,49.409,53.236v163.011c0,4.682,3.796,8.477,8.477,8.477h24.726c4.682,0,8.477-3.796,8.477-8.477
	V382.566l14.377-58.929c10.882,4.383,30.907,10.216,64.005,12.703c26.723,2.009,44.616-0.254,57.682-1.907
	c11.624-1.469,17.563-2.085,22.416,0.025c2.291,3.299,4.745,6.653,7.364,10.06c15.813,20.57,33.148,37.262,40.869,44.361
	l-27.815,95.802c-0.744,2.561-0.24,5.322,1.362,7.455c1.601,2.133,4.112,3.388,6.779,3.388h29.3c3.662,0,6.911-2.352,8.054-5.833
	l37.188-113.217c0.795-2.418,0.46-5.065-0.911-7.21L465.68,341.722z"/>
<g>
	<path style="fill:#8C4A14;" d="M56.871,177.195c-6.638-0.008-13.479-0.003-19.896,0.009c0.445,0.07,0.897,0.113,1.355,0.109
		c0.192-0.001,7.847-0.044,18.557-0.078C56.882,177.222,56.876,177.207,56.871,177.195z"/>
	<path style="fill:#8C4A14;" d="M199.24,348.015l-8.429,34.552v104.479c0,3.418-2.028,6.356-4.941,7.698
		c1.077,0.496,2.272,0.78,3.537,0.78h24.726c4.682,0,8.477-3.796,8.477-8.477V382.566l14.377-58.929
		c-0.137-0.026-0.274-0.052-0.411-0.077C219.663,320.473,203.315,331.313,199.24,348.015z"/>
	<path style="fill:#8C4A14;" d="M465.68,341.722c0.261-0.448,0.488-0.858,0.68-1.208c3.712-6.727,7.988-18.367,12.708-34.597
		c4.637-15.938,8.751-40.19,2.036-65.221c-6.671-24.862-22.193-44.064-46.134-57.075c-20.865-11.338-44.266-12.429-67.095-10.513
		c12.176,1.302,24.102,4.429,35.297,10.513c23.943,13.011,39.463,32.213,46.134,57.075c6.715,25.031,2.601,49.282-2.036,65.221
		c-4.72,16.23-8.996,27.872-12.708,34.597c-0.193,0.35-0.419,0.761-0.682,1.208l17.599,27.54c1.371,2.144,1.706,4.793,0.911,7.21
		L415.203,489.69c-1.008,3.072-3.661,5.259-6.789,5.731c0.406,0.06,0.817,0.101,1.234,0.101h29.3c3.662,0,6.911-2.352,8.054-5.832
		l37.188-113.217c0.795-2.418,0.46-5.065-0.911-7.21L465.68,341.722z"/>
</g>
<path style="fill:#512807;" d="M265.748,16.516c-4.639-0.432-8.796,2.98-9.239,7.64c-0.858,9.058-9.185,17.331-16.02,22.677
	c-3.617,2.828-7.639,5.114-11.911,6.819c7.439-11.529,11.569-23.853,12.292-26.113c1.425-4.456-1.03-9.221-5.485-10.651
	c-4.457-1.43-9.228,1.024-10.661,5.478c-0.026,0.081-2.678,8.247-7.353,16.9c-5.092,9.422-10.574,15.732-15.566,17.965h-7.373
	c5.874-8.644,7.952-18.438,8.033-24.735c0.06-4.66-3.654-8.467-8.315-8.557c-4.643-0.104-8.519,3.627-8.638,8.286
	c-0.021,0.831-0.734,20.09-18.636,25.005h-8.667c-2.067,0-4.065,0.756-5.614,2.125l-24.599,21.742
	c-3.509,3.101-3.839,8.458-0.738,11.967c1.675,1.896,4.009,2.863,6.356,2.863c1.995,0,3.999-0.701,5.611-2.125l22.194-19.617h6.551
	c0.009,0,0.017,0.002,0.026,0.002c0.012,0,0.025-0.002,0.037-0.002h35.318c0.009,0,0.018,0.002,0.028,0.002
	c0.009,0,0.018-0.002,0.028-0.002h6.576c14.867,0,29.411-4.97,40.952-13.997c13.754-10.757,21.309-22.342,22.455-34.432
	C273.83,21.094,270.41,16.958,265.748,16.516z"/>
<path style="fill:#2B2B2B;" d="M91.133,132.624c-5.414,0-9.82-4.398-9.82-9.802c0-5.404,4.405-9.802,9.82-9.802
	s9.82,4.398,9.82,9.802C100.953,128.226,96.548,132.624,91.133,132.624z"/>
<path style="fill:#FFDCAF;" d="M157.423,225.517h0.783c2.99,0,5.758-1.575,7.286-4.144c1.528-2.569,1.59-5.753,0.164-8.38
	l-22.409-41.248l0,0c-20.987,5.869-54.578,5.449-54.578,5.449l0,0c7.115,19.277,29.051,76.921,42.849,93.603
	c6.165,7.452,16.271,18.589,30.04,33.102c1.629,1.718,3.865,2.644,6.151,2.644c0.943-0.001,1.894-0.158,2.816-0.483
	c3.154-1.111,5.36-3.973,5.631-7.305C178.623,268.564,166.421,241.181,157.423,225.517z"/>
<g>
</g>
<g>
</g>
<g>
</g>
<g>
</g>
<g>
</g>
<g>
</g>
<g>
</g>
<g>
</g>
<g>
</g>
<g>
</g>
<g>
</g>
<g>
</g>
<g>
</g>
<g>
</g>
<g>
</g>
</svg>
