<?xml version="1.0" encoding="iso-8859-1"?>
<!-- Generator: Adobe Illustrator 19.0.0, SVG Export Plug-In . SVG Version: 6.00 Build 0)  -->
<svg version="1.1" id="Capa_1" xmlns="http://www.w3.org/2000/svg" xmlns:xlink="http://www.w3.org/1999/xlink" x="0px" y="0px"
	 viewBox="0 0 512 512" style="enable-background:new 0 0 512 512;" xml:space="preserve">
<path style="fill:#8DCE55;" d="M394.172,47.444c-70.711,63.193-115.177,158.871-140.233,242.108
	c27.863,92.561,34.269,169.736,34.269,169.736h46.478c0-205.012,47.326-340.496,74.313-401.088
	C413.109,48.971,401.706,40.711,394.172,47.444z"/>
<path style="fill:#6DC82A;" d="M264.821,256.265c-3.968,11.241-7.597,22.372-10.882,33.286
	c27.863,92.561,34.27,169.736,34.27,169.736h21.659C309.867,459.281,301.86,362.835,264.821,256.265z"/>
<path style="fill:#8DCE55;" d="M332.022,459.288c0,0,17.166-206.893,128.16-306.085c5.599-5.004,14.074,1.135,11.019,7.994
	c-20.056,45.032-55.229,145.725-55.229,298.091L332.022,459.288L332.022,459.288z"/>
<path style="fill:#6DC82A;" d="M471.2,161.197c3.055-6.859-5.42-12.998-11.019-7.994
	c-110.993,99.192-128.159,306.085-128.159,306.085h24.206c0,0,15.386-185.41,111.192-289.34
	C468.727,166.831,469.992,163.91,471.2,161.197z"/>
<path style="fill:#8DCE55;" d="M419.152,459.288c0,0,11.399-137.384,85.102-203.251c3.718-3.322,9.346,0.754,7.317,5.308
	c-13.318,29.903-36.674,96.766-36.674,197.943H419.152z"/>
<path style="fill:#6DC82A;" d="M511.571,261.345c2.029-4.555-3.599-8.631-7.317-5.308c-73.703,65.867-85.102,203.251-85.102,203.251
	h20.605c0,0,9.298-111.972,65.339-182.206C507.402,271.038,509.598,265.776,511.571,261.345z"/>
<path style="fill:#8DCE55;" d="M290.269,459.288c0,0-23.097-278.379-172.441-411.844c-7.533-6.732-18.937,1.527-14.826,10.756
	c26.986,60.591,74.312,196.076,74.312,401.088L290.269,459.288L290.269,459.288z"/>
<path style="fill:#6DC82A;" d="M124.091,53.201c-2.064-1.946-4.149-3.868-6.263-5.758c-7.533-6.732-18.937,1.527-14.826,10.756
	c26.986,60.591,74.312,196.076,74.312,401.088h21.893c0-205.012-47.326-340.496-74.312-401.088
	C124.123,56.469,123.898,54.772,124.091,53.201z"/>
<path style="fill:#8DCE55;" d="M179.978,459.288c0,0-17.166-206.893-128.16-306.085c-5.599-5.004-14.074,1.135-11.019,7.994
	c20.056,45.032,55.229,145.725,55.229,298.091L179.978,459.288L179.978,459.288z"/>
<path style="fill:#6DC82A;" d="M51.818,153.203c-5.599-5.004-14.074,1.135-11.019,7.994
	c20.056,45.032,55.229,145.725,55.229,298.091h21.635c0-148.225-33.285-247.54-53.56-294.288
	C60.142,160.923,56.049,156.984,51.818,153.203z"/>
<path style="fill:#8DCE55;" d="M92.848,459.288c0,0-11.399-137.384-85.102-203.251c-3.718-3.322-9.346,0.754-7.317,5.308
	c13.318,29.903,36.674,96.766,36.674,197.943H92.848z"/>
<g>
	<path style="fill:#6DC82A;" d="M7.746,256.037c-3.718-3.322-9.346,0.754-7.317,5.308c13.318,29.903,36.674,96.766,36.674,197.943
		h20.862c0-85.65-16.736-146.702-29.953-181.566C21.841,269.921,15.109,262.618,7.746,256.037z"/>
	<path style="fill:#6DC82A;" d="M497.892,467.014H14.959c-4.267,0-7.727-3.459-7.727-7.727s3.459-7.727,7.727-7.727h482.932
		c4.267,0,7.727,3.459,7.727,7.727S502.159,467.014,497.892,467.014z"/>
</g>
<g>
</g>
<g>
</g>
<g>
</g>
<g>
</g>
<g>
</g>
<g>
</g>
<g>
</g>
<g>
</g>
<g>
</g>
<g>
</g>
<g>
</g>
<g>
</g>
<g>
</g>
<g>
</g>
<g>
</g>
</svg>
